<svg width="30" height="32" viewBox="0 0 30 32" fill="none" xmlns="http://www.w3.org/2000/svg">
<g id="material-symbols:format-list-bulleted-rounded">
<path id="Vector" d="M5.625 17.5C5.10417 17.5 4.66167 17.3175 4.2975 16.9525C3.9325 16.5883 3.75 16.1458 3.75 15.625C3.75 15.1042 3.9325 14.6617 4.2975 14.2975C4.66167 13.9325 5.10417 13.75 5.625 13.75C6.14583 13.75 6.58833 13.9325 6.9525 14.2975C7.3175 14.6617 7.5 15.1042 7.5 15.625C7.5 16.1458 7.3175 16.5883 6.9525 16.9525C6.58833 17.3175 6.14583 17.5 5.625 17.5ZM5.625 10C5.10417 10 4.66167 9.8175 4.2975 9.4525C3.9325 9.08833 3.75 8.64583 3.75 8.125C3.75 7.60417 3.9325 7.16167 4.2975 6.7975C4.66167 6.4325 5.10417 6.25 5.625 6.25C6.14583 6.25 6.58833 6.4325 6.9525 6.7975C7.3175 7.16167 7.5 7.60417 7.5 8.125C7.5 8.64583 7.3175 9.08833 6.9525 9.4525C6.58833 9.8175 6.14583 10 5.625 10ZM5.625 25C5.10417 25 4.66167 24.8175 4.2975 24.4525C3.9325 24.0883 3.75 23.6458 3.75 23.125C3.75 22.6042 3.9325 22.1617 4.2975 21.7975C4.66167 21.4325 5.10417 21.25 5.625 21.25C6.14583 21.25 6.58833 21.4325 6.9525 21.7975C7.3175 22.1617 7.5 22.6042 7.5 23.125C7.5 23.6458 7.3175 24.0883 6.9525 24.4525C6.58833 24.8175 6.14583 25 5.625 25ZM11.25 24.375C10.8958 24.375 10.5992 24.255 10.36 24.015C10.12 23.7758 10 23.4792 10 23.125C10 22.7708 10.12 22.4742 10.36 22.235C10.5992 21.995 10.8958 21.875 11.25 21.875H25C25.3542 21.875 25.6508 21.995 25.89 22.235C26.13 22.4742 26.25 22.7708 26.25 23.125C26.25 23.4792 26.13 23.7758 25.89 24.015C25.6508 24.255 25.3542 24.375 25 24.375H11.25ZM11.25 16.875C10.8958 16.875 10.5992 16.755 10.36 16.515C10.12 16.2758 10 15.9792 10 15.625C10 15.2708 10.12 14.9737 10.36 14.7337C10.5992 14.4946 10.8958 14.375 11.25 14.375H25C25.3542 14.375 25.6508 14.4946 25.89 14.7337C26.13 14.9737 26.25 15.2708 26.25 15.625C26.25 15.9792 26.13 16.2758 25.89 16.515C25.6508 16.755 25.3542 16.875 25 16.875H11.25ZM11.25 9.375C10.8958 9.375 10.5992 9.25542 10.36 9.01625C10.12 8.77625 10 8.47917 10 8.125C10 7.77083 10.12 7.47375 10.36 7.23375C10.5992 6.99458 10.8958 6.875 11.25 6.875H25C25.3542 6.875 25.6508 6.99458 25.89 7.23375C26.13 7.47375 26.25 7.77083 26.25 8.125C26.25 8.47917 26.13 8.77625 25.89 9.01625C25.6508 9.25542 25.3542 9.375 25 9.375H11.25Z" fill="#0A4757"/>
</g>
</svg>
