<svg width="30" height="30" viewBox="0 0 30 30" fill="none" xmlns="http://www.w3.org/2000/svg">
<g id="material-symbols:grid-view-outline-rounded">
<path id="Vector" d="M6.14415 13.75C5.4683 13.75 4.88953 13.505 4.40784 13.015C3.92696 12.5258 3.68652 11.9375 3.68652 11.25V6.25C3.68652 5.5625 3.92696 4.97375 4.40784 4.48375C4.88953 3.99458 5.4683 3.75 6.14415 3.75H11.0594C11.7353 3.75 12.314 3.99458 12.7957 4.48375C13.2766 4.97375 13.517 5.5625 13.517 6.25V11.25C13.517 11.9375 13.2766 12.5258 12.7957 13.015C12.314 13.505 11.7353 13.75 11.0594 13.75H6.14415ZM6.14415 26.25C5.4683 26.25 4.88953 26.0054 4.40784 25.5163C3.92696 25.0263 3.68652 24.4375 3.68652 23.75V18.75C3.68652 18.0625 3.92696 17.4738 4.40784 16.9837C4.88953 16.4946 5.4683 16.25 6.14415 16.25H11.0594C11.7353 16.25 12.314 16.4946 12.7957 16.9837C13.2766 17.4738 13.517 18.0625 13.517 18.75V23.75C13.517 24.4375 13.2766 25.0263 12.7957 25.5163C12.314 26.0054 11.7353 26.25 11.0594 26.25H6.14415ZM18.4323 13.75C17.7564 13.75 17.1781 13.505 16.6972 13.015C16.2155 12.5258 15.9747 11.9375 15.9747 11.25V6.25C15.9747 5.5625 16.2155 4.97375 16.6972 4.48375C17.1781 3.99458 17.7564 3.75 18.4323 3.75H23.3475C24.0234 3.75 24.6022 3.99458 25.0839 4.48375C25.5647 4.97375 25.8052 5.5625 25.8052 6.25V11.25C25.8052 11.9375 25.5647 12.5258 25.0839 13.015C24.6022 13.505 24.0234 13.75 23.3475 13.75H18.4323ZM18.4323 26.25C17.7564 26.25 17.1781 26.0054 16.6972 25.5163C16.2155 25.0263 15.9747 24.4375 15.9747 23.75V18.75C15.9747 18.0625 16.2155 17.4738 16.6972 16.9837C17.1781 16.4946 17.7564 16.25 18.4323 16.25H23.3475C24.0234 16.25 24.6022 16.4946 25.0839 16.9837C25.5647 17.4738 25.8052 18.0625 25.8052 18.75V23.75C25.8052 24.4375 25.5647 25.0263 25.0839 25.5163C24.6022 26.0054 24.0234 26.25 23.3475 26.25H18.4323ZM6.14415 11.25H11.0594V6.25H6.14415V11.25ZM18.4323 11.25H23.3475V6.25H18.4323V11.25ZM18.4323 23.75H23.3475V18.75H18.4323V23.75ZM6.14415 23.75H11.0594V18.75H6.14415V23.75Z" fill="white"/>
</g>
</svg>
